<svg xmlns="http://www.w3.org/2000/svg" width="1120" height="620" viewBox="0 0 1120 620">
<rect width="100%" height="100%" fill="white"/>
<text x="90" y="38" font-family="Arial" font-size="24" font-weight="700">Semantic Delta by Model</text>
<line x1="90" y1="470" x2="1080" y2="470" stroke="#222" stroke-width="1"/>
<line x1="90" y1="70" x2="90" y2="470" stroke="#222" stroke-width="1"/>
<line x1="85" y1="470.0" x2="1080" y2="470.0" stroke="#e5e5e5" stroke-width="1"/>
<text x="78" y="474.0" text-anchor="end" font-family="Arial" font-size="13" fill="#444">0</text>
<line x1="85" y1="270.0" x2="1080" y2="270.0" stroke="#e5e5e5" stroke-width="1"/>
<text x="78" y="274.0" text-anchor="end" font-family="Arial" font-size="13" fill="#444">20</text>
<line x1="85" y1="70.0" x2="1080" y2="70.0" stroke="#e5e5e5" stroke-width="1"/>
<text x="78" y="74.0" text-anchor="end" font-family="Arial" font-size="13" fill="#444">40</text>
<line x1="85" y1="-130.0" x2="1080" y2="-130.0" stroke="#e5e5e5" stroke-width="1"/>
<text x="78" y="-126.0" text-anchor="end" font-family="Arial" font-size="13" fill="#444">60</text>
<line x1="85" y1="-330.0" x2="1080" y2="-330.0" stroke="#e5e5e5" stroke-width="1"/>
<text x="78" y="-326.0" text-anchor="end" font-family="Arial" font-size="13" fill="#444">80</text>
<line x1="85" y1="-530.0" x2="1080" y2="-530.0" stroke="#e5e5e5" stroke-width="1"/>
<text x="78" y="-526.0" text-anchor="end" font-family="Arial" font-size="13" fill="#444">100</text>
<rect x="104.0" y="413.8" width="113.4" height="56.2" fill="#E45756"/>
<text x="160.7" y="408.8" text-anchor="middle" font-family="Arial" font-size="11" fill="#333">5.6</text>
<text x="160.7" y="538" text-anchor="end" transform="rotate(-35 160.7,538)" font-family="Arial" font-size="13" fill="#222">claude opus 4.5</text>
<rect x="245.4" y="326.5" width="113.4" height="143.5" fill="#E45756"/>
<text x="302.1" y="321.5" text-anchor="middle" font-family="Arial" font-size="11" fill="#333">14.3</text>
<text x="302.1" y="538" text-anchor="end" transform="rotate(-35 302.1,538)" font-family="Arial" font-size="13" fill="#222">deepseek v3.2</text>
<rect x="386.9" y="122.3" width="113.4" height="347.7" fill="#E45756"/>
<text x="443.6" y="117.3" text-anchor="middle" font-family="Arial" font-size="11" fill="#333">34.8</text>
<text x="443.6" y="538" text-anchor="end" transform="rotate(-35 443.6,538)" font-family="Arial" font-size="13" fill="#222">gemini 3 pro</text>
<rect x="528.3" y="392.7" width="113.4" height="77.3" fill="#E45756"/>
<text x="585.0" y="387.7" text-anchor="middle" font-family="Arial" font-size="11" fill="#333">7.7</text>
<text x="585.0" y="538" text-anchor="end" transform="rotate(-35 585.0,538)" font-family="Arial" font-size="13" fill="#222">gpt 4</text>
<rect x="669.7" y="350.3" width="113.4" height="119.7" fill="#E45756"/>
<text x="726.4" y="345.3" text-anchor="middle" font-family="Arial" font-size="11" fill="#333">12.0</text>
<text x="726.4" y="538" text-anchor="end" transform="rotate(-35 726.4,538)" font-family="Arial" font-size="13" fill="#222">gpt 5.1</text>
<rect x="811.1" y="456.4" width="113.4" height="13.6" fill="#E45756"/>
<text x="867.9" y="451.4" text-anchor="middle" font-family="Arial" font-size="11" fill="#333">1.4</text>
<text x="867.9" y="538" text-anchor="end" transform="rotate(-35 867.9,538)" font-family="Arial" font-size="13" fill="#222">grok 4.1 fast</text>
<rect x="952.6" y="227.2" width="113.4" height="242.8" fill="#E45756"/>
<text x="1009.3" y="222.2" text-anchor="middle" font-family="Arial" font-size="11" fill="#333">24.3</text>
<text x="1009.3" y="538" text-anchor="end" transform="rotate(-35 1009.3,538)" font-family="Arial" font-size="13" fill="#222">o3</text>
<rect x="90" y="579" width="16" height="16" fill="#E45756"/>
<text x="114" y="592" font-family="Arial" font-size="14" fill="#222">Semantic Delta</text>
</svg>